# Blender v2.79 (sub 0) OBJ File: ''
# www.blender.org
o Cube.006_Cube.000
v 0.142687 -0.319016 -0.719383
v 0.088052 0.186780 -0.790652
v 0.371216 0.207761 -0.557946
v 0.640579 0.364833 -0.020681
v 0.794745 -0.161902 -0.189144
v 0.419883 0.357244 -0.367400
v -0.545971 0.615493 0.024823
v -0.354166 0.658733 0.196355
v -0.159256 0.708430 -0.308109
v -0.225280 0.562505 -0.636428
v -0.797842 0.416310 -0.168945
v -0.159256 0.708430 -0.308109
v 0.292922 0.446998 0.341598
v -0.248959 0.066616 0.453127
v 0.293637 -0.422408 0.603139
v -0.333863 -0.199729 0.429960
v -0.576243 -0.339426 0.321602
v -0.303224 -0.301483 0.455357
v 0.142687 -0.319016 -0.719383
v -0.662250 -0.348357 0.253489
v -0.885886 -0.203006 0.036005
v -0.303224 -0.301483 0.455357
v -0.248959 0.066616 0.453127
v -0.333863 -0.199729 0.429960
v 0.601735 -0.239144 0.357605
v 0.866268 -0.098683 -0.029881
v 0.640579 0.364833 -0.020681
v 0.794745 -0.161902 -0.189144
v 0.866268 -0.098683 -0.029881
v 0.601735 -0.239144 0.357605
v -0.303224 -0.301483 0.455357
v -0.576243 -0.339426 0.321602
v 0.324988 -0.444507 -0.562378
v -0.354166 0.658733 0.196355
v -0.066667 0.505636 0.546044
v 0.292922 0.446998 0.341598
v 0.419883 0.357244 -0.367400
v -0.109905 0.701115 -0.407383
v -0.107701 0.709860 -0.384949
v -0.248959 0.066616 0.453127
v -0.545971 0.615493 0.024823
v -0.817981 0.385489 -0.146777
v -0.817981 0.385489 -0.146777
v -0.795852 0.426384 -0.142241
v -0.797842 0.416310 -0.168945
v -0.797842 0.416310 -0.168945
v -0.225280 0.562505 -0.636428
v 0.088052 0.186780 -0.790652
v 0.088052 0.186780 -0.790652
v -0.225280 0.562505 -0.636428
v -0.109905 0.701115 -0.407383
v 0.794745 -0.161902 -0.189144
v 0.414162 -0.445914 -0.488679
v 0.324988 -0.444507 -0.562378
v 0.866268 -0.098683 -0.029881
v 0.371216 0.207761 -0.557946
v -0.795852 0.426384 -0.142241
v -0.545971 0.615493 0.024823
v -0.107701 0.709860 -0.384949
v -0.109905 0.701115 -0.407383
v 0.601735 -0.239144 0.357605
v -0.066667 0.505636 0.546044
v 0.017401 -0.417009 0.713359
v 0.324988 -0.444507 -0.562378
v 0.017401 -0.417009 0.713359
v 0.568390 0.435149 0.025205
v 0.292922 0.446998 0.341598
v 0.293637 -0.422408 0.603139
v 0.414162 -0.445914 -0.488679
v -0.662250 -0.348357 0.253489
v 0.414162 -0.445914 -0.488679
v 0.293637 -0.422408 0.603139
v 0.017401 -0.417009 0.713359
v 0.568390 0.435149 0.025205
v -0.159256 0.708430 -0.308109
v -0.107701 0.709860 -0.384949
v 0.568390 0.435149 0.025205
v 0.640579 0.364833 -0.020681
v -0.662250 -0.348357 0.253489
v -0.576243 -0.339426 0.321602
v -0.333863 -0.199729 0.429960
v -0.066667 0.505636 0.546044
v -0.354166 0.658733 0.196355
v -0.885886 -0.203006 0.036005
v -0.795852 0.426384 -0.142241
v 0.142687 -0.319016 -0.719383
v -0.885886 -0.203006 0.036005
v -0.817981 0.385489 -0.146777
v 0.419883 0.357244 -0.367400
v 0.371216 0.207761 -0.557946
vt 0.374620 0.828946
vt 0.377758 0.689491
vt 0.476394 0.728542
vt 0.654408 0.708779
vt 0.606487 0.890718
vt 0.537978 0.687018
vt 0.950111 0.159604
vt 0.948495 0.247543
vt 0.802216 0.184030
vt 0.750486 0.077158
vt 0.964371 0.034208
vt 0.802216 0.184030
vt 0.285424 0.796771
vt 0.190519 0.969081
vt 0.025907 0.830235
vt 0.498807 0.334680
vt 0.576991 0.377311
vt 0.489720 0.370433
vt 0.276468 0.051901
vt 0.322806 0.471524
vt 0.267108 0.491990
vt 0.489720 0.370433
vt 0.468923 0.245193
vt 0.498807 0.334680
vt 0.085109 0.698838
vt 0.145184 0.553829
vt 0.279512 0.628585
vt 0.771837 0.910309
vt 0.720938 0.890841
vt 0.710795 0.723025
vt 0.854579 0.509481
vt 0.931591 0.484759
vt 0.960399 0.880474
vt 0.948495 0.247543
vt 0.974093 0.374227
vt 0.864480 0.403368
vt 0.537978 0.687018
vt 0.470651 0.487272
vt 0.476894 0.483958
vt 0.468923 0.245193
vt 0.596033 0.037185
vt 0.693439 0.107168
vt 0.974093 0.030920
vt 0.969290 0.041911
vt 0.964371 0.034208
vt 0.082726 0.439866
vt 0.025907 0.190046
vt 0.128931 0.063801
vt 0.377758 0.689491
vt 0.390669 0.514367
vt 0.470651 0.487272
vt 0.606487 0.890718
vt 0.462793 0.904423
vt 0.432078 0.890052
vt 0.658981 0.878729
vt 0.476394 0.728542
vt 0.969290 0.041911
vt 0.950111 0.159604
vt 0.776013 0.178632
vt 0.771993 0.172005
vt 0.085109 0.698838
vt 0.297681 0.939548
vt 0.028108 0.930833
vt 0.322806 0.030920
vt 0.374620 0.422119
vt 0.297681 0.659038
vt 0.285424 0.796771
vt 0.740785 0.578104
vt 0.931357 0.879342
vt 0.960399 0.483958
vt 0.931357 0.879342
vt 0.740785 0.578104
vt 0.766126 0.495025
vt 0.745253 0.393502
vt 0.802216 0.184030
vt 0.776013 0.178632
vt 0.658981 0.672005
vt 0.654408 0.708779
vt 0.608584 0.377048
vt 0.576991 0.377311
vt 0.498807 0.334680
vt 0.400809 0.100456
vt 0.521902 0.030920
vt 0.693439 0.316996
vt 0.686530 0.093440
vt 0.276468 0.051901
vt 0.267108 0.491990
vt 0.092281 0.449243
vt 0.537978 0.687018
vt 0.476394 0.728542
vn 0.6362 -0.0399 -0.7705
vn 0.7741 0.3868 -0.5012
vn -0.2269 0.9739 0.0083
vn -0.4494 0.8464 -0.2858
vn -0.0051 0.2881 0.9576
vn -0.4480 0.0872 0.8898
vn -0.3117 -0.9064 -0.2852
vn -0.4758 0.0755 0.8763
vn 0.7164 0.3367 0.6111
vn 0.5554 -0.8278 0.0791
vn 0.0530 -0.9839 0.1710
vn 0.2651 0.9442 0.1954
vn 0.5280 0.7724 -0.3530
vn -0.6467 0.2199 0.7303
vn -0.8679 0.4827 -0.1174
vn -0.5955 -0.1748 -0.7841
vn 0.4604 0.6375 -0.6177
vn 0.5091 0.2483 0.8241
vn 0.4189 -0.3512 0.8374
vn 0.3122 0.5777 0.7541
vn -0.3429 -0.8866 -0.3105
vn -0.6034 0.0938 0.7919
vn 0.0053 -0.9923 0.1234
vn -0.0867 -0.9925 0.0860
vn -0.1984 -0.9801 -0.0008
vn -0.1265 -0.9545 -0.2702
vn -0.6164 0.2556 0.7448
vn -0.4365 0.0611 0.8976
vn -0.7268 0.1605 0.6678
vn -0.6081 0.2986 0.7355
vn -0.5990 0.2272 0.7678
vn -0.6736 0.2890 0.6803
vn -0.6779 0.1878 0.7107
s 1
f 1/1/1 2/2/1 3/3/1
f 4/4/2 5/5/2 6/6/2
f 7/7/3 8/8/3 9/9/3
f 10/10/4 11/11/4 12/12/4
f 13/13/5 14/14/5 15/15/5
f 16/16/6 17/17/6 18/18/6
f 19/19/7 20/20/7 21/21/7
f 22/22/8 23/23/8 24/24/8
f 25/25/9 26/26/9 27/27/9
f 28/28/10 29/29/10 30/30/10
f 31/31/11 32/32/11 33/33/11
f 34/34/12 35/35/12 36/36/12
f 37/37/13 38/38/13 39/39/13
f 40/40/14 41/41/14 42/42/14
f 43/43/15 44/44/15 45/45/15
f 46/46/16 47/47/16 48/48/16
f 49/49/17 50/50/17 51/51/17
f 52/52/1 53/53/1 3/3/1
f 53/53/1 54/54/1 3/3/1
f 54/54/1 1/1/1 3/3/1
f 55/55/2 5/5/2 4/4/2
f 5/5/2 56/56/2 6/6/2
f 57/57/4 58/58/4 11/11/4
f 58/58/4 12/12/4 11/11/4
f 12/12/4 59/59/4 60/60/4
f 60/60/4 10/10/4 12/12/4
f 15/15/18 61/61/18 13/13/18
f 13/13/19 62/62/19 14/14/19
f 14/14/20 63/63/20 15/15/20
f 19/19/21 64/64/21 20/20/21
f 22/22/22 65/65/22 23/23/22
f 66/66/9 67/67/9 27/27/9
f 67/67/9 25/25/9 27/27/9
f 30/30/10 68/68/10 69/69/10
f 69/69/10 28/28/10 30/30/10
f 32/32/23 70/70/23 33/33/23
f 33/33/24 71/71/24 31/31/24
f 71/71/25 72/72/25 31/31/25
f 72/72/26 73/73/26 31/31/26
f 36/36/12 74/74/12 75/75/12
f 74/74/12 76/76/12 75/75/12
f 75/75/12 34/34/12 36/36/12
f 39/39/13 77/77/13 37/37/13
f 77/77/13 78/78/13 37/37/13
f 79/79/27 80/80/27 40/40/27
f 80/80/28 81/81/28 40/40/28
f 40/40/29 82/82/29 83/83/29
f 42/42/30 84/84/30 40/40/30
f 84/84/31 79/79/31 40/40/31
f 41/41/32 85/85/32 42/42/32
f 40/40/33 83/83/33 41/41/33
f 86/86/16 87/87/16 48/48/16
f 87/87/16 88/88/16 48/48/16
f 88/88/16 46/46/16 48/48/16
f 51/51/17 89/89/17 90/90/17
f 90/90/17 49/49/17 51/51/17
